<?xml version="1.0" encoding="UTF-8" standalone="no"?>
<!-- Created with Inkscape (http://www.inkscape.org/) -->

<svg
   xmlns:dc="http://purl.org/dc/elements/1.1/"
   xmlns:cc="http://creativecommons.org/ns#"
   xmlns:rdf="http://www.w3.org/1999/02/22-rdf-syntax-ns#"
   xmlns:svg="http://www.w3.org/2000/svg"
   xmlns="http://www.w3.org/2000/svg"
   xmlns:xlink="http://www.w3.org/1999/xlink"
   xmlns:sodipodi="http://sodipodi.sourceforge.net/DTD/sodipodi-0.dtd"
   xmlns:inkscape="http://www.inkscape.org/namespaces/inkscape"
   width="744.09448819"
   height="1052.3622047"
   id="svg2"
   version="1.1"
   inkscape:version="0.47 r22583"
   sodipodi:docname="bread.svg">
  <defs
     id="defs4">
    <inkscape:perspective
       sodipodi:type="inkscape:persp3d"
       inkscape:vp_x="0 : 526.18109 : 1"
       inkscape:vp_y="0 : 1000 : 0"
       inkscape:vp_z="744.09448 : 526.18109 : 1"
       inkscape:persp3d-origin="372.04724 : 350.78739 : 1"
       id="perspective10" />
    <radialGradient
       r="29.036913"
       fy="132.28575"
       fx="61.518883"
       cy="132.28575"
       cx="61.518883"
       gradientTransform="matrix(2.382716e-8,-0.296405,1.43676,4.683673e-7,-128.544,150.5202)"
       gradientUnits="userSpaceOnUse"
       id="radialGradient1480"
       xlink:href="#linearGradient2795"
       inkscape:collect="always" />
    <linearGradient
       y2="114.39767"
       x2="135.66525"
       y1="20.603781"
       x1="26.648937"
       gradientTransform="matrix(0.562541,0,0,0.567972,-9.399749,-5.305317)"
       gradientUnits="userSpaceOnUse"
       id="linearGradient1478"
       xlink:href="#linearGradient4689"
       inkscape:collect="always" />
    <linearGradient
       y2="137.27299"
       x2="112.03144"
       y1="192.35176"
       x1="150.96111"
       gradientTransform="matrix(0.562541,0,0,0.567972,-9.399749,-5.305317)"
       gradientUnits="userSpaceOnUse"
       id="linearGradient1475"
       xlink:href="#linearGradient4671"
       inkscape:collect="always" />
    <radialGradient
       gradientUnits="userSpaceOnUse"
       gradientTransform="matrix(1,0,0,0.177966,0,108.7434)"
       r="29.036913"
       fy="132.28575"
       fx="61.518883"
       cy="132.28575"
       cx="61.518883"
       id="radialGradient2801"
       xlink:href="#linearGradient2795"
       inkscape:collect="always" />
    <linearGradient
       y2="76.313133"
       x2="26.670298"
       y1="76.176224"
       x1="172.94208"
       gradientTransform="matrix(0.562541,0,0,0.567972,-11.5974,-7.60954)"
       gradientUnits="userSpaceOnUse"
       id="linearGradient2258"
       xlink:href="#linearGradient4689"
       inkscape:collect="always" />
    <linearGradient
       y2="144.75717"
       x2="-65.308502"
       y1="144.75717"
       x1="224.23996"
       gradientTransform="matrix(0.562541,0,0,0.567972,-11.5974,-7.60954)"
       gradientUnits="userSpaceOnUse"
       id="linearGradient2255"
       xlink:href="#linearGradient4671"
       inkscape:collect="always" />
    <linearGradient
       y2="144.75717"
       x2="-65.308502"
       y1="144.75717"
       x1="224.23996"
       gradientTransform="translate(100.2702,99.61116)"
       gradientUnits="userSpaceOnUse"
       id="linearGradient2250"
       xlink:href="#linearGradient4671"
       inkscape:collect="always" />
    <linearGradient
       y2="76.313133"
       x2="26.670298"
       y1="77.475983"
       x1="172.94208"
       gradientTransform="translate(100.2702,99.61116)"
       gradientUnits="userSpaceOnUse"
       id="linearGradient2248"
       xlink:href="#linearGradient4689"
       inkscape:collect="always" />
    <linearGradient
       y2="144.75717"
       x2="-65.308502"
       y1="144.75717"
       x1="224.23996"
       gradientTransform="translate(100.2702,99.61116)"
       gradientUnits="userSpaceOnUse"
       id="linearGradient2589"
       xlink:href="#linearGradient4671"
       inkscape:collect="always" />
    <linearGradient
       y2="76.313133"
       x2="26.670298"
       y1="77.475983"
       x1="172.94208"
       gradientTransform="translate(100.2702,99.61116)"
       gradientUnits="userSpaceOnUse"
       id="linearGradient2587"
       xlink:href="#linearGradient4689"
       inkscape:collect="always" />
    <linearGradient
       gradientTransform="translate(100.2702,99.61116)"
       gradientUnits="userSpaceOnUse"
       xlink:href="#linearGradient4689"
       id="linearGradient2990"
       y2="76.313133"
       x2="26.670298"
       y1="77.475983"
       x1="172.94208" />
    <linearGradient
       gradientTransform="translate(100.2702,99.61116)"
       gradientUnits="userSpaceOnUse"
       xlink:href="#linearGradient4671"
       id="linearGradient2987"
       y2="144.75717"
       x2="-65.308502"
       y1="144.75717"
       x1="224.23996" />
    <linearGradient
       id="linearGradient4689">
      <stop
         id="stop4691"
         offset="0"
         style="stop-color:#5a9fd4;stop-opacity:1;" />
      <stop
         id="stop4693"
         offset="1"
         style="stop-color:#306998;stop-opacity:1;" />
    </linearGradient>
    <linearGradient
       id="linearGradient4671">
      <stop
         id="stop4673"
         offset="0"
         style="stop-color:#ffd43b;stop-opacity:1;" />
      <stop
         id="stop4675"
         offset="1"
         style="stop-color:#ffe873;stop-opacity:1" />
    </linearGradient>
    <linearGradient
       id="linearGradient3236">
      <stop
         id="stop3244"
         offset="0"
         style="stop-color:#f4f4f4;stop-opacity:1" />
      <stop
         id="stop3240"
         offset="1"
         style="stop-color:white;stop-opacity:1" />
    </linearGradient>
    <linearGradient
       id="linearGradient3676">
      <stop
         id="stop3678"
         offset="0"
         style="stop-color:#b2b2b2;stop-opacity:0.5;" />
      <stop
         id="stop3680"
         offset="1"
         style="stop-color:#b3b3b3;stop-opacity:0;" />
    </linearGradient>
    <linearGradient
       id="linearGradient2787">
      <stop
         id="stop2789"
         offset="0"
         style="stop-color:#7f7f7f;stop-opacity:0.5;" />
      <stop
         id="stop2791"
         offset="1"
         style="stop-color:#7f7f7f;stop-opacity:0;" />
    </linearGradient>
    <linearGradient
       id="linearGradient2795">
      <stop
         id="stop2797"
         offset="0"
         style="stop-color:#b8b8b8;stop-opacity:0.49803922;" />
      <stop
         id="stop2799"
         offset="1"
         style="stop-color:#7f7f7f;stop-opacity:0;" />
    </linearGradient>
    <inkscape:perspective
       id="perspective3040"
       inkscape:persp3d-origin="243.02499 : 47.924998 : 1"
       inkscape:vp_z="486.04999 : 71.887497 : 1"
       inkscape:vp_y="0 : 1000 : 0"
       inkscape:vp_x="0 : 71.887497 : 1"
       sodipodi:type="inkscape:persp3d" />
    <linearGradient
       inkscape:collect="always"
       xlink:href="#linearGradient4689"
       id="linearGradient3119"
       gradientUnits="userSpaceOnUse"
       gradientTransform="matrix(0.562541,0,0,0.567972,319.46038,535.9357)"
       x1="26.648937"
       y1="20.603781"
       x2="135.66525"
       y2="114.39767" />
    <linearGradient
       inkscape:collect="always"
       xlink:href="#linearGradient4689"
       id="linearGradient3167"
       gradientUnits="userSpaceOnUse"
       gradientTransform="matrix(0.562541,0,0,0.567972,319.46038,535.9357)"
       x1="26.648937"
       y1="20.603781"
       x2="135.66525"
       y2="114.39767" />
    <linearGradient
       inkscape:collect="always"
       xlink:href="#linearGradient4689"
       id="linearGradient3175"
       gradientUnits="userSpaceOnUse"
       gradientTransform="matrix(0.562541,0,0,0.567972,331.46038,543.9357)"
       x1="26.648937"
       y1="20.603781"
       x2="135.66525"
       y2="114.39767" />
    <linearGradient
       inkscape:collect="always"
       xlink:href="#linearGradient4689"
       id="linearGradient3183"
       gradientUnits="userSpaceOnUse"
       gradientTransform="matrix(0.562541,0,0,0.567972,335.46038,547.9357)"
       x1="26.648937"
       y1="20.603781"
       x2="135.66525"
       y2="114.39767" />
    <linearGradient
       inkscape:collect="always"
       xlink:href="#linearGradient4689"
       id="linearGradient3188"
       gradientUnits="userSpaceOnUse"
       gradientTransform="matrix(0.562541,0,0,0.567972,333.46038,545.9357)"
       x1="26.648937"
       y1="20.603781"
       x2="135.66525"
       y2="114.39767" />
    <linearGradient
       inkscape:collect="always"
       xlink:href="#linearGradient4689"
       id="linearGradient3194"
       gradientUnits="userSpaceOnUse"
       gradientTransform="matrix(0.562541,0,0,0.567972,339.46038,551.9357)"
       x1="26.648937"
       y1="20.603781"
       x2="135.66525"
       y2="114.39767" />
  </defs>
  <sodipodi:namedview
     id="base"
     pagecolor="#ffffff"
     bordercolor="#666666"
     borderopacity="1.0"
     inkscape:pageopacity="0.0"
     inkscape:pageshadow="2"
     inkscape:zoom="1.979899"
     inkscape:cx="385.05763"
     inkscape:cy="405.42319"
     inkscape:document-units="px"
     inkscape:current-layer="layer1"
     showgrid="true"
     inkscape:window-width="1440"
     inkscape:window-height="825"
     inkscape:window-x="0"
     inkscape:window-y="24"
     inkscape:window-maximized="1">
    <inkscape:grid
       type="xygrid"
       id="grid2818" />
  </sodipodi:namedview>
  <metadata
     id="metadata7">
    <rdf:RDF>
      <cc:Work
         rdf:about="">
        <dc:format>image/svg+xml</dc:format>
        <dc:type
           rdf:resource="http://purl.org/dc/dcmitype/StillImage" />
        <dc:title />
      </cc:Work>
    </rdf:RDF>
  </metadata>
  <g
     inkscape:label="Layer 1"
     inkscape:groupmode="layer"
     id="layer1">
    <path
       style="fill:#d38d5f;fill-opacity:1;stroke:#ff6600;stroke-width:4;stroke-linecap:butt;stroke-linejoin:miter;stroke-miterlimit:4;stroke-opacity:1;stroke-dasharray:none"
       d="m -696.39938,294.62357 c -120,0 -180,30.00001 -130,80 0,90 -30,240 -10,260 0,0 14.125,16.15625 14.125,16.15625 20.01798,20.01798 260.9152,19.0848 280,0 20,-20 -10,-170 -10,-260 16.64274,-16.64274 21.09203,-31.06232 15.20056,-42.90021 -6.82161,-7.51546 -13.3736,-17.07969 -20.19363,-24.28957 -18.98511,-18.63897 -68.71541,-28.96647 -139.13193,-28.96647 z"
       id="path3617"
       sodipodi:nodetypes="ccccscccc" />
    <path
       sodipodi:nodetypes="czzczc"
       id="path3613"
       d="m -826.41652,372.96113 c 0,90 -30,240 -10,260 20.01798,20.01798 260.9152,19.0848 280,0 20,-20 -10,-170 -10,-260 50,-50 -10,-80 -130,-80 -120,0 -180,30.00001 -130,80 z"
       style="fill:#fff3b9;fill-opacity:1;stroke:#ff7f2a;stroke-width:4;stroke-linecap:butt;stroke-linejoin:miter;stroke-miterlimit:4;stroke-opacity:1;stroke-dasharray:none" />
    <path
       style="fill:#fff3b9;fill-opacity:1;stroke:#000000;stroke-width:1px;stroke-linecap:butt;stroke-linejoin:miter;stroke-opacity:1"
       d="m -336.49253,462.86471 c 0,90 -30,240 -10,260 20.01798,20.01798 260.915199,19.0848 279.999999,0 20,-20 -10,-170 -10,-260 50,-50 -10,-80 -129.999999,-80 -120,0 -180,30.00001 -130,80 z"
       id="path3615"
       sodipodi:nodetypes="czzczc" />
    <path
       style="fill:#ffb380;fill-opacity:1;stroke:#ff6600;stroke-width:2.11110139;stroke-linecap:butt;stroke-linejoin:miter;stroke-miterlimit:4;stroke-opacity:1;stroke-dasharray:none"
       d="m 199.1875,525.21875 c -63.33304,0 -95.01376,15.82999 -68.625,42.21875 0,47.49978 -15.83676,126.66325 -5.28125,137.21875 l 7.46875,8.53125 c 10.565,10.56499 137.70876,10.07248 147.78125,0 10.55551,-10.55551 -5.28125,-89.71897 -5.28125,-137.21875 8.78363,-8.78363 11.10937,-16.37726 8,-22.625 -3.60028,-3.96648 -7.05681,-9.03855 -10.65625,-12.84375 -10.01987,-9.83719 -36.24214,-15.28125 -73.40625,-15.28125 z M 209.375,563.625 c 4.58365,-0.0213 9.36276,0.32703 13.96875,1.09375 7.27627,1.21273 13.40625,6.67116 13.40625,13.9375 l 0,25.53125 c 0,7.48684 -5.9513,13.625 -13.40625,13.625 l -26.78125,0 c -9.09286,0 -16.75,7.80635 -16.75,16.65625 l 0,12.25 -9.21875,0 c -7.79246,0 -12.34408,-5.65589 -14.25,-13.59375 -2.57102,-10.66397 -2.46182,-17.03703 0,-27.25 2.13424,-8.91003 8.95754,-13.59375 16.75,-13.59375 l 10.0625,0 26.8125,0 0,-3.40625 -26.8125,0 0,-10.21875 c 0,-7.73739 2.06003,-11.93299 13.40625,-13.9375 3.85156,-0.68153 8.22884,-1.07245 12.8125,-1.09375 z m -14.5,8.21875 c -2.77948,0 -5.03125,2.29865 -5.03125,5.125 0,2.81634 2.25177,5.09375 5.03125,5.09375 2.76954,0 5.03124,-2.27741 5.03125,-5.09375 0,-2.82635 -2.26171,-5.125 -5.03125,-5.125 z m 45.21875,20.4375 10.0625,0 c 7.80237,0 11.48047,5.83631 13.40625,13.59375 2.68022,10.77423 2.79933,18.85112 0,27.25 -2.70999,8.15835 -5.61379,13.59375 -13.40625,13.59375 l -13.40625,0 -26.78125,0 0,3.40625 26.78125,0 0,10.21875 c 0,7.73739 -6.6561,11.67061 -13.40625,13.625 -10.15502,2.94663 -18.29392,2.49561 -26.78125,0 -7.08767,-2.08468 -13.40625,-6.35866 -13.40625,-13.625 l 0,-25.53125 c 0,-7.34651 6.07041,-13.625 13.40625,-13.625 l 26.78125,0 c 8.9241,0 16.75,-7.76924 16.75,-17 l 0,-11.90625 z m -15.0625,64.65625 c -2.76956,0 -5.03125,2.27742 -5.03125,5.09375 0,2.82635 2.2617,5.125 5.03125,5.125 2.77947,0 5.03124,-2.29865 5.03125,-5.125 0,-2.81633 -2.25178,-5.09374 -5.03125,-5.09375 z"
       id="path3622" />
    <path
       style="fill:#fff3b9;fill-opacity:1;stroke:#ff7f2a;stroke-width:2.11110139;stroke-linecap:butt;stroke-linejoin:miter;stroke-miterlimit:4;stroke-opacity:1;stroke-dasharray:none"
       d="m 199.15625,524.34375 c -63.33305,0 -94.98252,15.82999 -68.59375,42.21875 0,47.49979 -15.83676,126.66324 -5.28125,137.21875 10.56499,10.565 137.70876,10.07249 147.78125,0 10.55551,-10.55551 -5.28125,-89.71896 -5.28125,-137.21875 26.38876,-26.38876 -5.29196,-42.21875 -68.625,-42.21875 z M 205.375,559.625 c 4.58365,-0.0213 9.36276,0.32703 13.96875,1.09375 7.27627,1.21273 13.40625,6.67116 13.40625,13.9375 l 0,25.53125 c 0,7.48684 -5.9513,13.625 -13.40625,13.625 l -26.78125,0 c -9.09286,0 -16.75,7.80635 -16.75,16.65625 l 0,12.25 -9.21875,0 c -7.79246,0 -12.34408,-5.65589 -14.25,-13.59375 -2.57102,-10.66397 -2.46182,-17.03703 0,-27.25 2.13424,-8.91003 8.95754,-13.59375 16.75,-13.59375 l 10.0625,0 26.8125,0 0,-3.40625 -26.8125,0 0,-10.21875 c 0,-7.73739 2.06003,-11.93299 13.40625,-13.9375 3.85156,-0.68153 8.22884,-1.07245 12.8125,-1.09375 z m -14.5,8.21875 c -2.77948,0 -5.03125,2.29865 -5.03125,5.125 0,2.81634 2.25177,5.09375 5.03125,5.09375 2.76954,0 5.03124,-2.27741 5.03125,-5.09375 0,-2.82635 -2.26171,-5.125 -5.03125,-5.125 z m 45.21875,20.4375 10.0625,0 c 7.80237,0 11.48047,5.83631 13.40625,13.59375 2.68022,10.77423 2.79933,18.85112 0,27.25 -2.70999,8.15835 -5.61379,13.59375 -13.40625,13.59375 l -13.40625,0 -26.78125,0 0,3.40625 26.78125,0 0,10.21875 c 0,7.73739 -6.6561,11.67061 -13.40625,13.625 -10.15502,2.94663 -18.29392,2.49561 -26.78125,0 -7.08767,-2.08468 -13.40625,-6.35866 -13.40625,-13.625 l 0,-25.53125 c 0,-7.34651 6.07041,-13.625 13.40625,-13.625 l 26.78125,0 c 8.9241,0 16.75,-7.76924 16.75,-17 l 0,-11.90625 z m -15.0625,64.65625 c -2.76956,0 -5.03125,2.27742 -5.03125,5.09375 0,2.82635 2.2617,5.125 5.03125,5.125 2.77947,0 5.03124,-2.29865 5.03125,-5.125 0,-2.81633 -2.25178,-5.09374 -5.03125,-5.09375 z"
       id="path3624" />
    <path
       style="fill:#c87137;stroke:none"
       d="m 195.5,530.3125 c -12.16488,0.1661 -22.56499,12.24436 -35.125,6.5 -16.0768,-7.35278 -22.31648,-1.16157 -28.8125,6.40625 -6.49601,7.56782 4.42529,38.94138 9.59375,46.90625 5.16845,7.96488 4.95415,23.69342 -4.25,35.1875 -9.34961,11.67572 4.33916,40.91899 3.1875,49.0625 -1.15165,8.14351 -5.67864,10.69787 -6.09375,15.9375 -0.14849,1.8743 -5.00474,9.23425 2.4375,11.84375 7.44225,2.6095 11.07956,1.94965 17.53125,8.46875 6.45169,6.5191 28.27843,-0.94907 38.375,-1.0625 10.09657,-0.11342 26.17451,0.80912 36.5625,5.84375 2.37024,1.14876 12.59931,0.96968 13.5625,0.53125 11.51969,-5.24356 27.48679,-7.80116 33.9375,-16.09375 6.4507,-8.29258 -6.07687,-10.31165 -6.28125,-20.1875 -0.20437,-9.87586 -0.37982,-12.76228 2.5,-23.6875 4.25336,-16.13602 -0.14898,-26.06739 6.09375,-42.375 6.24272,-16.30762 -7.74178,-20.73518 -3.1875,-29.84375 5.61756,-11.23511 5.3125,-30.54617 5.3125,-39.46875 0,-14.95833 -17.68951,-2.34609 -30.90625,-7.46875 -13.21674,-5.12266 -26.49491,8.13995 -43.71875,-3.1875 -3.76772,-2.47788 -7.31258,-3.35901 -10.71875,-3.3125 z m 7.875,27.3125 c 4.58365,-0.0213 9.36276,0.32703 13.96875,1.09375 7.27627,1.21273 13.40625,6.67116 13.40625,13.9375 l 0,25.53125 c 0,7.48684 -5.9513,13.625 -13.40625,13.625 l -26.78125,0 c -9.09286,0 -16.75,7.80635 -16.75,16.65625 l 0,12.25 -9.21875,0 c -7.79246,0 -12.34408,-5.65589 -14.25,-13.59375 -2.57102,-10.66397 -2.46182,-17.03703 0,-27.25 2.13424,-8.91003 8.95754,-13.59375 16.75,-13.59375 l 10.0625,0 26.8125,0 0,-3.40625 -26.8125,0 0,-10.21875 c 0,-7.73739 2.06003,-11.93299 13.40625,-13.9375 3.85156,-0.68153 8.22884,-1.07245 12.8125,-1.09375 z m -14.5,8.21875 c -2.77948,0 -5.03125,2.29865 -5.03125,5.125 0,2.81634 2.25177,5.09375 5.03125,5.09375 2.76954,0 5.03124,-2.27741 5.03125,-5.09375 0,-2.82635 -2.26171,-5.125 -5.03125,-5.125 z m 45.21875,20.4375 10.0625,0 c 7.80237,0 11.48047,5.83631 13.40625,13.59375 2.68022,10.77423 2.79933,18.85112 0,27.25 -2.70999,8.15835 -5.61379,13.59375 -13.40625,13.59375 l -13.40625,0 -26.78125,0 0,3.40625 26.78125,0 0,10.21875 c 0,7.73739 -6.6561,11.67061 -13.40625,13.625 -10.15502,2.94663 -18.29392,2.49561 -26.78125,0 -7.08767,-2.08468 -13.40625,-6.35866 -13.40625,-13.625 l 0,-25.53125 c 0,-7.34651 6.07041,-13.625 13.40625,-13.625 l 26.78125,0 c 8.9241,0 16.75,-7.76924 16.75,-17 l 0,-11.90625 z m -15.0625,64.65625 c -2.76956,0 -5.03125,2.27742 -5.03125,5.09375 0,2.82635 2.2617,5.125 5.03125,5.125 2.77947,0 5.03124,-2.29865 5.03125,-5.125 0,-2.81633 -2.25178,-5.09374 -5.03125,-5.09375 z"
       id="path2850" />
    <path
       style="fill:#800080;stroke:none"
       d="m 246,532.5 c -9.35664,-0.20927 -23.31468,4.6572 -30.875,5.09375 -10.08042,0.58206 -26.17071,0.42192 -36.78125,-4.125 -2.42101,-1.03743 -12.65195,-0.42018 -13.59375,0.0625 -11.26383,5.77272 -27.0975,9.07312 -33.15625,17.65625 -6.05875,8.58313 6.55609,10.01928 7.21875,19.875 0.66266,9.85572 0.96324,12.7341 -1.40625,23.78125 -3.49962,16.31608 1.38512,26.04514 -4.09375,42.625 -5.47888,16.57987 8.68899,20.34605 4.5625,29.65625 -5.08989,11.4838 -3.91424,30.77454 -3.5,39.6875 0.69448,14.9422 17.80967,1.49648 31.25,6 13.44032,4.50352 26.08133,-9.35933 43.8125,1.15625 17.73116,10.51559 29.25541,-11.91095 45.65625,-5.3125 16.40083,6.59844 22.33108,0.1425 28.46875,-7.71875 6.13766,-7.86125 -6.24858,-38.72117 -11.78125,-46.4375 -5.53266,-7.71633 -6.03559,-23.43475 2.625,-35.34375 8.79747,-12.09721 -6.24109,-40.65555 -5.46875,-48.84375 0.77233,-8.18819 5.17236,-10.93425 5.34375,-16.1875 0.0613,-1.87917 4.58662,-9.48883 -2.96875,-11.75 -7.55538,-2.26116 -11.15885,-1.41246 -17.90625,-7.625 -1.68685,-1.55313 -4.28737,-2.18024 -7.40625,-2.25 z m -44.625,23.125 c 4.58365,-0.0213 9.36276,0.32703 13.96875,1.09375 7.27627,1.21273 13.40625,6.67116 13.40625,13.9375 l 0,25.53125 c 0,7.48684 -5.9513,13.625 -13.40625,13.625 l -26.78125,0 c -9.09286,0 -16.75,7.80635 -16.75,16.65625 l 0,12.25 -9.21875,0 c -7.79246,0 -12.34408,-5.65589 -14.25,-13.59375 -2.57102,-10.66397 -2.46182,-17.03703 0,-27.25 2.13424,-8.91003 8.95754,-13.59375 16.75,-13.59375 l 10.0625,0 26.8125,0 0,-3.40625 -26.8125,0 0,-10.21875 c 0,-7.73739 2.06003,-11.93299 13.40625,-13.9375 3.85156,-0.68153 8.22884,-1.07245 12.8125,-1.09375 z m -14.5,8.21875 c -2.77948,0 -5.03125,2.29865 -5.03125,5.125 0,2.81634 2.25177,5.09375 5.03125,5.09375 2.76954,0 5.03124,-2.27741 5.03125,-5.09375 0,-2.82635 -2.26171,-5.125 -5.03125,-5.125 z m 45.21875,20.4375 10.0625,0 c 7.80237,0 11.48047,5.83631 13.40625,13.59375 2.68022,10.77423 2.79933,18.85112 0,27.25 -2.70999,8.15835 -5.61379,13.59375 -13.40625,13.59375 l -13.40625,0 -26.78125,0 0,3.40625 26.78125,0 0,10.21875 c 0,7.73739 -6.6561,11.67061 -13.40625,13.625 -10.15502,2.94663 -18.29392,2.49561 -26.78125,0 -7.08767,-2.08468 -13.40625,-6.35866 -13.40625,-13.625 l 0,-25.53125 c 0,-7.34651 6.07041,-13.625 13.40625,-13.625 l 26.78125,0 c 8.9241,0 16.75,-7.76924 16.75,-17 l 0,-11.90625 z m -15.0625,64.65625 c -2.76956,0 -5.03125,2.27742 -5.03125,5.09375 0,2.82635 2.2617,5.125 5.03125,5.125 2.77947,0 5.03124,-2.29865 5.03125,-5.125 0,-2.81633 -2.25178,-5.09374 -5.03125,-5.09375 z"
       id="path2848" />
    <path
       style="fill:#ffb380;fill-opacity:1;stroke:#ff6600;stroke-width:2.11110139;stroke-linecap:butt;stroke-linejoin:miter;stroke-miterlimit:4;stroke-opacity:1;stroke-dasharray:none"
       d="m 188.5,506.03125 c -63.33304,0 -94.98252,15.82998 -68.59375,42.21875 0,47.49978 -15.83676,126.66324 -5.28125,137.21875 L 122.09375,694 c 10.565,10.565 137.67752,10.07249 147.75,0 10.55551,-10.55551 -5.25,-89.71897 -5.25,-137.21875 8.78363,-8.78363 11.10937,-16.37725 8,-22.625 -3.60028,-3.96647 -7.05681,-9.03855 -10.65625,-12.84375 -10.01987,-9.83718 -36.27339,-15.28125 -73.4375,-15.28125 z m 8.875,45.59375 c 4.58365,-0.0213 9.36276,0.32703 13.96875,1.09375 7.27627,1.21273 13.40625,6.67116 13.40625,13.9375 l 0,25.53125 c 0,7.48684 -5.9513,13.625 -13.40625,13.625 l -26.78125,0 c -9.09286,0 -16.75,7.80635 -16.75,16.65625 l 0,12.25 -9.21875,0 c -7.79246,0 -12.34408,-5.65589 -14.25,-13.59375 -2.57102,-10.66397 -2.46182,-17.03703 0,-27.25 2.13424,-8.91003 8.95754,-13.59375 16.75,-13.59375 l 10.0625,0 26.8125,0 0,-3.40625 -26.8125,0 0,-10.21875 c 0,-7.73739 2.06003,-11.93299 13.40625,-13.9375 3.85156,-0.68153 8.22884,-1.07245 12.8125,-1.09375 z m -14.5,8.21875 c -2.77948,0 -5.03125,2.29865 -5.03125,5.125 0,2.81634 2.25177,5.09375 5.03125,5.09375 2.76954,0 5.03124,-2.27741 5.03125,-5.09375 0,-2.82635 -2.26171,-5.125 -5.03125,-5.125 z m 45.21875,20.4375 10.0625,0 c 7.80237,0 11.48047,5.83631 13.40625,13.59375 2.68022,10.77423 2.79933,18.85112 0,27.25 -2.70999,8.15835 -5.61379,13.59375 -13.40625,13.59375 l -13.40625,0 -26.78125,0 0,3.40625 26.78125,0 0,10.21875 c 0,7.73739 -6.6561,11.67061 -13.40625,13.625 -10.15502,2.94663 -18.29392,2.49561 -26.78125,0 -7.08767,-2.08468 -13.40625,-6.35866 -13.40625,-13.625 l 0,-25.53125 c 0,-7.34651 6.07041,-13.625 13.40625,-13.625 l 26.78125,0 c 8.9241,0 16.75,-7.76924 16.75,-17 l 0,-11.90625 z m -15.0625,64.65625 c -2.76956,0 -5.03125,2.27742 -5.03125,5.09375 0,2.82635 2.2617,5.125 5.03125,5.125 2.77947,0 5.03124,-2.29865 5.03125,-5.125 0,-2.81633 -2.25178,-5.09374 -5.03125,-5.09375 z"
       id="path3632" />
    <path
       style="fill:#fff3b9;fill-opacity:1;stroke:#ff7f2a;stroke-width:2.11110139;stroke-linecap:butt;stroke-linejoin:miter;stroke-miterlimit:4;stroke-opacity:1;stroke-dasharray:none"
       d="m 188.5,505.15625 c -63.33305,0 -94.98252,15.82999 -68.59375,42.21875 0,47.49978 -15.83676,126.66324 -5.28125,137.21875 10.56499,10.56499 137.70876,10.07248 147.78125,0 C 272.96176,674.03824 257.125,594.87478 257.125,547.375 283.51377,520.98623 251.83304,505.15625 188.5,505.15625 z m 0.875,42.46875 c 4.58365,-0.0213 9.36276,0.32703 13.96875,1.09375 7.27627,1.21273 13.40625,6.67116 13.40625,13.9375 l 0,25.53125 c 0,7.48684 -5.9513,13.625 -13.40625,13.625 l -26.78125,0 c -9.09286,0 -16.75,7.80635 -16.75,16.65625 l 0,12.25 -9.21875,0 c -7.79246,0 -12.34408,-5.65589 -14.25,-13.59375 -2.57102,-10.66397 -2.46182,-17.03703 0,-27.25 2.13424,-8.91003 8.95754,-13.59375 16.75,-13.59375 l 10.0625,0 26.8125,0 0,-3.40625 -26.8125,0 0,-10.21875 c 0,-7.73739 2.06003,-11.93299 13.40625,-13.9375 3.85156,-0.68153 8.22884,-1.07245 12.8125,-1.09375 z m -14.5,8.21875 c -2.77948,0 -5.03125,2.29865 -5.03125,5.125 0,2.81634 2.25177,5.09375 5.03125,5.09375 2.76954,0 5.03124,-2.27741 5.03125,-5.09375 0,-2.82635 -2.26171,-5.125 -5.03125,-5.125 z m 45.21875,20.4375 10.0625,0 c 7.80237,0 11.48047,5.83631 13.40625,13.59375 2.68022,10.77423 2.79933,18.85112 0,27.25 -2.70999,8.15835 -5.61379,13.59375 -13.40625,13.59375 l -13.40625,0 -26.78125,0 0,3.40625 26.78125,0 0,10.21875 c 0,7.73739 -6.6561,11.67061 -13.40625,13.625 -10.15502,2.94663 -18.29392,2.49561 -26.78125,0 -7.08767,-2.08468 -13.40625,-6.35866 -13.40625,-13.625 l 0,-25.53125 c 0,-7.34651 6.07041,-13.625 13.40625,-13.625 l 26.78125,0 c 8.9241,0 16.75,-7.76924 16.75,-17 l 0,-11.90625 z m -15.0625,64.65625 c -2.76956,0 -5.03125,2.27742 -5.03125,5.09375 0,2.82635 2.2617,5.125 5.03125,5.125 2.77947,0 5.03124,-2.29865 5.03125,-5.125 0,-2.81633 -2.25178,-5.09374 -5.03125,-5.09375 z"
       id="path3634" />
    <g
       transform="translate(-1143.4927,-367.69552)"
       id="g2864">
      <path
         sodipodi:nodetypes="ccccscccc"
         id="path2866"
         d="m 766.30151,330.98907 c -120,0 -180,30.00001 -130,80 0,90 -30,240 -10,260 0,0 14.125,16.15625 14.125,16.15625 20.01798,20.01798 260.9152,19.0848 280,0 20,-20 -10,-170 -10,-260 16.64274,-16.64274 21.09203,-31.06232 15.20056,-42.90021 -6.82161,-7.51546 -13.3736,-17.07969 -20.19363,-24.28957 -18.98511,-18.63897 -68.71541,-28.96647 -139.13193,-28.96647 z"
         style="fill:#ffb380;fill-opacity:1;stroke:#ff6600;stroke-width:4;stroke-linecap:butt;stroke-linejoin:miter;stroke-miterlimit:4;stroke-opacity:1;stroke-dasharray:none" />
      <path
         style="fill:#fff3b9;fill-opacity:1;stroke:#ff7f2a;stroke-width:4;stroke-linecap:butt;stroke-linejoin:miter;stroke-miterlimit:4;stroke-opacity:1;stroke-dasharray:none"
         d="m 636.28437,409.32663 c 0,90 -30,240 -10,260 20.01798,20.01798 260.9152,19.0848 280,0 20,-20 -10,-170 -10,-260 50,-50 -10,-80 -130,-80 -120,0 -180,30.00001 -130,80 z"
         id="path2868"
         sodipodi:nodetypes="czzczc" />
    </g>
    <path
       style="fill:#c87137;stroke:none"
       d="m -230.86728,294.14051 c -12.22245,15.71234 -42.47625,20.59345 -64.30313,30.52866 -1.82501,0.83071 -21.2233,1.11568 -25.71429,-1.06092 -19.68261,-9.53934 -50.10962,-11.27582 -69.24005,-11.06091 -19.13043,0.21491 -60.50667,14.37234 -72.73098,2.0203 -12.22431,-12.35204 -19.08159,-11.08503 -33.18275,-16.02937 -14.10116,-4.94434 -4.90318,-18.92766 -4.62183,-22.47898 0.78652,-9.92776 9.35852,-14.75214 11.54061,-30.18202 2.1821,-15.42988 -23.77605,-70.81151 -6.06092,-92.93403 17.43953,-21.77836 17.87413,-51.57866 8.08122,-66.67007 -9.79291,-15.09141 -30.49104,-74.55433 -18.18274,-88.8934195 12.3083,-14.3390905 24.0868,-26.0534705 54.54824,-12.1218305 30.46145,13.93164045 54.23832,-27.52356 86.87311,-6.06092 32.6348,21.46264045 57.79015,-3.64521 82.83251,6.06092 25.04237,9.7061305 58.58885,-14.20009 58.58885,14.14213045 0,16.90602955 0.54231,53.46361955 -10.10153,74.75128955 -8.62921,17.25843 17.88929,25.66975 6.06092,56.56854 -11.82837,30.89878 -3.47108,49.74835 -11.5301,80.32199 -5.45653,20.70052 -5.1211,26.13368 -4.73387,44.84592 0.38724,18.71223 24.09917,22.54038 11.87673,38.25272 z"
       id="path2870"
       sodipodi:nodetypes="csszzzszzzzzzzsszszz" />
    <path
       sodipodi:nodetypes="csszzzszzzzzzzsszszz"
       id="path2872"
       d="m -505.21673,12.50752 c 11.47979,-16.2628495 41.47435,-22.54329 62.81644,-33.48114 1.78447,-0.91455 21.14861,-2.09981 25.73581,-0.13406 20.10427,8.61525 50.57909,8.93722 69.67892,7.83437 19.09982,-1.10285 59.77416,-17.16598 72.55875,-5.3948 12.7846,11.7711805 19.57566,10.1871705 33.89117,14.4715105 14.3155,4.28432995 5.77664,18.6796095 5.66047,22.2401595 -0.32475,9.95357 -8.66353,15.17072 -10.1269,30.68527 -1.46338,15.51455 27.03798,69.6313 10.36903,92.55243 -16.40962,22.56454 -15.46021,52.35288 -4.97721,66.97336 10.483,14.62049 33.91949,73.05833 22.29019,87.9534 -11.62931,14.89506 -22.85124,27.14365 -53.92664,14.64127 -31.07541,-12.50238 -52.902,30.012 -86.49805,10.08764 -33.59605,-19.92436 -57.55859,6.32431 -83.02458,-2.20872 -25.46599,-8.53302 -57.8664,16.90489 -59.18225,-11.40677 -0.78489,-16.8878 -3.02388,-53.38079 6.62016,-75.13967 7.81865,-17.64045 -19.06177,-24.81152 -8.68069,-56.22615 10.38108,-31.41462 1.15767,-49.85586 7.78856,-80.77069 4.48958,-20.93153 3.90227,-26.34325 2.6467,-45.01734 -1.25557,-18.67407 -25.11966,-21.39722 -13.63988,-37.66007 z"
       style="fill:#800080;stroke:none" />
    <g
       transform="translate(-650.53823,-393.95949)"
       id="g2874">
      <path
         style="fill:#ffb380;fill-opacity:1;stroke:#ff6600;stroke-width:4;stroke-linecap:butt;stroke-linejoin:miter;stroke-miterlimit:4;stroke-opacity:1;stroke-dasharray:none"
         d="m 253.14402,320.88755 c -120,0 -180.000002,30.00001 -130,80 0,90 -30.000002,240 -10,260 0,0 14.125,16.15625 14.125,16.15625 20.01798,20.01798 260.9152,19.0848 280,0 20,-20 -10,-170 -10,-260 16.64274,-16.64274 21.09203,-31.06232 15.20056,-42.90021 -6.82161,-7.51546 -13.3736,-17.07969 -20.19363,-24.28957 -18.98511,-18.63897 -68.71541,-28.96647 -139.13193,-28.96647 z"
         id="path2876"
         sodipodi:nodetypes="ccccscccc" />
      <path
         sodipodi:nodetypes="czzczc"
         id="path2878"
         d="m 123.12688,399.22511 c 0,90 -30.000002,240 -10,260 20.01798,20.01798 260.9152,19.0848 280,0 20,-20 -10,-170 -10,-260 50,-50 -10,-80 -130,-80 -120,0 -180.000002,30.00001 -130,80 z"
         style="fill:#fff3b9;fill-opacity:1;stroke:#ff7f2a;stroke-width:4;stroke-linecap:butt;stroke-linejoin:miter;stroke-miterlimit:4;stroke-opacity:1;stroke-dasharray:none" />
    </g>
    <g
       id="g3073"
       transform="translate(957.17501,418.00241)">
      <path
         d="m 184.61344,61.929363 c 0,-14.56215 -4.15226,-22.03817 -12.45678,-22.44755 -3.30427,-0.15595 -6.53055,0.37039 -9.66912,1.58878 -2.505,0.89673 -4.19124,1.78372 -5.07823,2.68045 l 0,34.75812 c 5.31216,3.33351 10.02976,4.88329 14.14303,4.63962 8.70415,-0.57508 13.0611,-7.64172 13.0611,-21.21942 z m 10.24419,0.60432 c 0,7.39804 -1.73498,13.53871 -5.22444,18.422 -3.88909,5.5266 -9.27923,8.37275 -16.17042,8.52871 -5.1952,0.1657 -10.54635,-1.46207 -16.05346,-4.87355 l 0,31.590317 -8.90884,-3.17755 0,-70.120567 c 1.46206,-1.79346 3.34325,-3.3335 5.62407,-4.63961 5.30242,-3.08983 11.74524,-4.67861 19.32848,-4.75658 l 0.12671,0.12671 c 6.93018,-0.08773 12.27159,2.75843 16.02422,8.5287 3.4992,5.29267 5.25368,12.07665 5.25368,20.37142 z"
         style="fill:#646464;fill-opacity:1"
         id="path46" />
      <path
         d="m 249.30487,83.265743 c 0,9.92254 -0.9942,16.794237 -2.9826,20.615097 -1.99816,3.82086 -5.79952,6.8717 -11.41385,9.14277 -4.55189,1.79346 -9.47417,2.76817 -14.75709,2.93387 l -1.47181,-5.61432 c 5.37064,-0.73103 9.15252,-1.46207 11.34561,-2.1931 4.31796,-1.46206 7.28108,-3.70389 8.90884,-6.706 1.30611,-2.446517 1.94942,-7.115367 1.94942,-14.026057 l 0,-2.3198 c -6.09193,2.76817 -12.47628,4.14251 -19.15303,4.14251 -4.38619,0 -8.25579,-1.37434 -11.58929,-4.14251 -3.74289,-3.01186 -5.61433,-6.83272 -5.61433,-11.46258 l 0,-37.07793 8.90884,-3.05084 0,37.3216 c 0,3.98656 1.28662,7.0569 3.85985,9.21101 2.57323,2.1541 5.90674,3.18729 9.99077,3.10932 4.08403,-0.08773 8.46047,-1.66676 13.10983,-4.75658 l 0,-43.54025 8.90884,0 0,48.41379 z"
         style="fill:#646464;fill-opacity:1"
         id="path48" />
      <path
         d="m 284.08249,88.997033 c -1.06243,0.08772 -2.03714,0.12671 -2.93387,0.12671 -5.03925,0 -8.96733,-1.19889 -11.77449,-3.60642 -2.79742,-2.40753 -4.20099,-5.73129 -4.20099,-9.97127 l 0,-35.08953 -6.10168,0 0,-5.60457 6.10168,0 0,-14.88381 8.89909,-3.16781 0,18.05162 10.01026,0 0,5.60457 -10.01026,0 0,34.84585 c 0,3.34325 0.89673,5.71179 2.6902,7.09588 1.54004,1.14041 3.98656,1.79347 7.32006,1.95917 l 0,4.63961 z"
         style="fill:#646464;fill-opacity:1"
         id="path50" />
      <path
         d="m 338.02288,88.266003 -8.90884,0 0,-34.38773 c 0,-3.49921 -0.81876,-6.51106 -2.44651,-9.02581 -1.88119,-2.84615 -4.49342,-4.26923 -7.84641,-4.26923 -4.08404,0 -9.19152,2.15411 -15.32242,6.46233 l 0,41.22044 -8.90885,0 0,-82.1972101 8.90885,-2.80716 0,37.4385701 c 5.6923,-4.14251 11.91093,-6.21864 18.66566,-6.21864 4.7176,0 8.53846,1.58877 11.46258,4.75658 2.93388,3.1678 4.39594,7.11537 4.39594,11.83296 l 0,37.1949 0,0 z"
         style="fill:#646464;fill-opacity:1"
         id="path52" />
      <path
         d="m 385.37424,60.525783 c 0,-5.59483 -1.06242,-10.21495 -3.17755,-13.87011 -2.51474,-4.45442 -6.42332,-6.80347 -11.70625,-7.04715 -9.76658,0.56534 -14.64012,7.56375 -14.64012,20.97574 0,6.15042 1.01369,11.28713 3.06057,15.41015 2.61223,5.25368 6.53056,7.84641 11.755,7.75869 9.80557,-0.07798 14.70835,-7.81717 14.70835,-23.22732 z m 9.75685,0.05848 c 0,7.96338 -2.03714,14.5914 -6.10168,19.88407 -4.47391,5.92623 -10.65357,8.89909 -18.53897,8.89909 -7.81716,0 -13.90909,-2.97286 -18.30503,-8.89909 -3.98656,-5.29267 -5.97497,-11.92069 -5.97497,-19.88407 0,-7.48576 2.15411,-13.78238 6.46232,-18.90935 4.5519,-5.43888 10.53661,-8.16806 17.93464,-8.16806 7.39805,0 13.42174,2.72918 18.06137,8.16806 4.3082,5.12697 6.46232,11.42359 6.46232,18.90935 z"
         style="fill:#646464;fill-opacity:1"
         id="path54" />
      <path
         d="m 446.20583,88.266003 -8.90884,0 0,-36.33715 c 0,-3.98656 -1.19889,-7.09588 -3.59667,-9.33772 -2.39779,-2.23208 -5.59483,-3.31401 -9.58139,-3.22628 -4.23023,0.07798 -8.25579,1.46206 -12.07664,4.14251 l 0,44.75864 -8.90884,0 0,-45.86006 c 5.12697,-3.73313 9.84456,-6.16991 14.15276,-7.31032 4.06455,-1.06243 7.65148,-1.58877 10.74131,-1.58877 2.11512,0 4.10352,0.20469 5.97496,0.61406 3.49921,0.80901 6.34535,2.31006 8.53845,4.51291 2.44651,2.43677 3.6649,5.3609 3.6649,8.78212 l 0,40.85006 z"
         style="fill:#646464;fill-opacity:1"
         id="path56" />
      <path
         id="path1948"
         d="m 60.510156,6.3979729 c -4.583653,0.021298 -8.960939,0.4122177 -12.8125,1.09375 C 36.35144,9.4962267 34.291407,13.691825 34.291406,21.429223 l 0,10.21875 26.8125,0 0,3.40625 -26.8125,0 -10.0625,0 c -7.792459,0 -14.6157592,4.683717 -16.7500002,13.59375 -2.46182,10.212966 -2.5710151,16.586023 0,27.25 1.9059283,7.937852 6.4575432,13.593748 14.2500002,13.59375 l 9.21875,0 0,-12.25 c 0,-8.849902 7.657144,-16.656248 16.75,-16.65625 l 26.78125,0 c 7.454951,0 13.406253,-6.138164 13.40625,-13.625 l 0,-25.53125 c 0,-7.266339 -6.12998,-12.7247775 -13.40625,-13.9375001 -4.605987,-0.7667253 -9.385097,-1.1150483 -13.96875,-1.09375 z m -14.5,8.2187501 c 2.769547,0 5.03125,2.298646 5.03125,5.125 -2e-6,2.816336 -2.261703,5.09375 -5.03125,5.09375 -2.779476,-1e-6 -5.03125,-2.277415 -5.03125,-5.09375 -1e-6,-2.826353 2.251774,-5.125 5.03125,-5.125 z"
         style="fill:url(#linearGradient1478);fill-opacity:1" />
      <path
         id="path1950"
         d="m 91.228906,35.054223 0,11.90625 c 0,9.230755 -7.825895,16.999999 -16.75,17 l -26.78125,0 c -7.335833,0 -13.406249,6.278483 -13.40625,13.625 l 0,25.531247 c 0,7.26634 6.318588,11.54032 13.40625,13.625 8.487331,2.49561 16.626237,2.94663 26.78125,0 6.750155,-1.95439 13.406253,-5.88761 13.40625,-13.625 l 0,-10.218747 -26.78125,0 0,-3.40625 26.78125,0 13.406254,0 c 7.79246,0 10.69625,-5.435408 13.40624,-13.59375 2.79933,-8.398886 2.68022,-16.475776 0,-27.25 -1.92578,-7.757441 -5.60387,-13.59375 -13.40624,-13.59375 l -10.062504,0 z m -15.0625,64.65625 c 2.779478,3e-6 5.03125,2.277417 5.03125,5.093747 -2e-6,2.82635 -2.251775,5.125 -5.03125,5.125 -2.76955,0 -5.03125,-2.29865 -5.03125,-5.125 2e-6,-2.81633 2.261697,-5.093747 5.03125,-5.093747 z"
         style="fill:url(#linearGradient1475);fill-opacity:1" />
      <path
         sodipodi:nodetypes="ccccccccccccccccccccccc"
         id="text3004"
         style="font-size:15.16445827px;font-style:normal;font-weight:normal;line-height:125%;fill:#646464;fill-opacity:1;stroke:none;font-family:Bitstream Vera Sans"
         d="m 463.5544,26.909383 1.56195,0 0,-9.79624 3.70013,0 0,-1.16766 -8.96221,0 0,1.16766 3.70013,0 0,9.79624 m 6.64702,0 1.33447,0 0,-8.94703 2.89641,8.945906 1.48569,0 3.01816,-8.915576 0,8.9167 1.45579,0 0,-10.9639 -1.92589,0 -3.29831,9.392857 -2.81297,-9.392857 -2.15335,0 0,10.9639" />
      <path
         transform="matrix(0.73406,0,0,0.809524,16.24958,27.00935)"
         d="m 110.46717,132.28575 c 0,4.75334 -21.914896,8.60668 -48.948287,8.60668 -27.033391,0 -48.948284,-3.85334 -48.948284,-8.60668 0,-4.75334 21.914893,-8.60668 48.948284,-8.60668 27.033391,0 48.948287,3.85334 48.948287,8.60668 z"
         sodipodi:ry="8.6066771"
         sodipodi:rx="48.948284"
         sodipodi:cy="132.28575"
         sodipodi:cx="61.518883"
         id="path1894"
         style="opacity:0.44382019;fill:url(#radialGradient1480);fill-opacity:1;fill-rule:nonzero;stroke:none"
         sodipodi:type="arc" />
    </g>
    <g
       transform="matrix(0.52777537,0,0,0.52777537,-681.66,801.57277)"
       id="g3127">
      <g
         id="g3129"
         transform="translate(-486.89352,18.182746)">
        <path
           style="fill:#ffb380;fill-opacity:1;stroke:#ff6600;stroke-width:4;stroke-linecap:butt;stroke-linejoin:miter;stroke-miterlimit:4;stroke-opacity:1;stroke-dasharray:none"
           d="m 766.30151,330.98907 c -120,0 -180,30.00001 -130,80 0,90 -30,240 -10,260 0,0 14.125,16.15625 14.125,16.15625 20.01798,20.01798 260.9152,19.0848 280,0 20,-20 -10,-170 -10,-260 16.64274,-16.64274 21.09203,-31.06232 15.20056,-42.90021 -6.82161,-7.51546 -13.3736,-17.07969 -20.19363,-24.28957 -18.98511,-18.63897 -68.71541,-28.96647 -139.13193,-28.96647 z"
           id="path3131"
           sodipodi:nodetypes="ccccscccc" />
        <path
           sodipodi:nodetypes="czzczc"
           id="path3133"
           d="m 636.28437,409.32663 c 0,90 -30,240 -10,260 20.01798,20.01798 260.9152,19.0848 280,0 20,-20 -10,-170 -10,-260 50,-50 -10,-80 -130,-80 -120,0 -180,30.00001 -130,80 z"
           style="fill:#fff3b9;fill-opacity:1;stroke:#ff7f2a;stroke-width:4;stroke-linecap:butt;stroke-linejoin:miter;stroke-miterlimit:4;stroke-opacity:1;stroke-dasharray:none" />
      </g>
      <path
         sodipodi:nodetypes="csszzzszzzzzzzsszszz"
         id="path3135"
         d="m 425.73187,680.01878 c -12.22245,15.71234 -42.47625,20.59345 -64.30313,30.52866 -1.82501,0.83071 -21.2233,1.11568 -25.71429,-1.06092 -19.68261,-9.53934 -50.10962,-11.27582 -69.24005,-11.06091 -19.13043,0.21491 -60.50667,14.37234 -72.73098,2.0203 -12.22431,-12.35204 -19.08159,-11.08503 -33.18275,-16.02937 -14.10116,-4.94434 -4.90318,-18.92766 -4.62183,-22.47898 0.78652,-9.92776 9.35852,-14.75214 11.54061,-30.18202 2.1821,-15.42988 -23.77605,-70.81151 -6.06092,-92.93403 17.43953,-21.77836 17.87413,-51.57866 8.08122,-66.67007 -9.79291,-15.09141 -30.49104,-74.55433 -18.18274,-88.89342 12.3083,-14.33909 24.0868,-26.05347 54.54824,-12.12183 30.46145,13.93164 54.23832,-27.52356 86.87311,-6.06092 32.6348,21.46264 57.79015,-3.64521 82.83251,6.06092 25.04237,9.70613 58.58885,-14.20009 58.58885,14.14213 0,16.90603 0.54231,53.46362 -10.10153,74.75129 -8.62921,17.25843 17.88929,25.66975 6.06092,56.56854 -11.82837,30.89878 -3.47108,49.74835 -11.5301,80.32199 -5.45653,20.70052 -5.1211,26.13368 -4.73387,44.84592 0.38724,18.71223 24.09917,22.54038 11.87673,38.25272 z"
         style="fill:#c87137;stroke:none" />
      <path
         style="fill:#800080;stroke:none"
         d="m 151.38242,398.38579 c 11.47979,-16.26285 41.47435,-22.54329 62.81644,-33.48114 1.78447,-0.91455 21.14861,-2.09981 25.73581,-0.13406 20.10427,8.61525 50.57909,8.93722 69.67892,7.83437 19.09982,-1.10285 59.77416,-17.16598 72.55875,-5.3948 12.7846,11.77118 19.57566,10.18717 33.89117,14.47151 14.3155,4.28433 5.77664,18.67961 5.66047,22.24016 -0.32475,9.95357 -8.66353,15.17072 -10.1269,30.68527 -1.46338,15.51455 27.03798,69.6313 10.36903,92.55243 -16.40962,22.56454 -15.46021,52.35288 -4.97721,66.97336 10.483,14.62049 33.91949,73.05833 22.29019,87.9534 -11.62931,14.89506 -22.85124,27.14365 -53.92664,14.64127 -31.07541,-12.50238 -52.902,30.012 -86.49805,10.08764 -33.59605,-19.92436 -57.55859,6.32431 -83.02458,-2.20872 -25.46599,-8.53302 -57.8664,16.90489 -59.18225,-11.40677 -0.78489,-16.8878 -3.02388,-53.38079 6.62016,-75.13967 7.81865,-17.64045 -19.06177,-24.81152 -8.68069,-56.22615 10.38108,-31.41462 1.15767,-49.85586 7.78856,-80.77069 4.48958,-20.93153 3.90227,-26.34325 2.6467,-45.01734 -1.25557,-18.67407 -25.11966,-21.39722 -13.63988,-37.66007 z"
         id="path3137"
         sodipodi:nodetypes="csszzzszzzzzzzsszszz" />
      <g
         id="g3139"
         transform="translate(6.0609152,-8.0812203)">
        <path
           sodipodi:nodetypes="ccccscccc"
           id="path3141"
           d="m 253.14402,320.88755 c -120,0 -180.000002,30.00001 -130,80 0,90 -30.000002,240 -10,260 0,0 14.125,16.15625 14.125,16.15625 20.01798,20.01798 260.9152,19.0848 280,0 20,-20 -10,-170 -10,-260 16.64274,-16.64274 21.09203,-31.06232 15.20056,-42.90021 -6.82161,-7.51546 -13.3736,-17.07969 -20.19363,-24.28957 -18.98511,-18.63897 -68.71541,-28.96647 -139.13193,-28.96647 z"
           style="fill:#ffb380;fill-opacity:1;stroke:#ff6600;stroke-width:4;stroke-linecap:butt;stroke-linejoin:miter;stroke-miterlimit:4;stroke-opacity:1;stroke-dasharray:none" />
        <path
           style="fill:#fff3b9;fill-opacity:1;stroke:#ff7f2a;stroke-width:4;stroke-linecap:butt;stroke-linejoin:miter;stroke-miterlimit:4;stroke-opacity:1;stroke-dasharray:none"
           d="m 123.12688,399.22511 c 0,90 -30.000002,240 -10,260 20.01798,20.01798 260.9152,19.0848 280,0 20,-20 -10,-170 -10,-260 50,-50 -10,-80 -130,-80 -120,0 -180.000002,30.00001 -130,80 z"
           id="path3143"
           sodipodi:nodetypes="czzczc" />
      </g>
    </g>
    <path
       style="fill:url(#linearGradient3194);fill-opacity:1"
       d="m 409.375,563.625 c -4.58366,0.0213 -8.96094,0.41222 -12.8125,1.09375 -11.34622,2.00451 -13.40625,6.20011 -13.40625,13.9375 l 0,10.21875 26.8125,0 0,3.40625 -26.8125,0 -10.0625,0 c -7.79246,0 -14.61576,4.68372 -16.75,13.59375 -2.46182,10.21297 -2.57102,16.58603 0,27.25 1.90592,7.93786 6.45754,13.59375 14.25,13.59375 l 9.21875,0 0,-12.25 c 0,-8.8499 7.65714,-16.65625 16.75,-16.65625 l 26.78125,0 c 7.45495,0 13.40625,-6.13816 13.40625,-13.625 l 0,-25.53125 c 0,-7.26634 -6.12998,-12.72477 -13.40625,-13.9375 -4.60599,-0.76672 -9.3851,-1.11505 -13.96875,-1.09375 z m -14.5,8.21875 c 2.76954,0 5.03125,2.29865 5.03125,5.125 -10e-6,2.81634 -2.26171,5.09375 -5.03125,5.09375 -2.77948,0 -5.03125,-2.27741 -5.03125,-5.09375 0,-2.82635 2.25177,-5.125 5.03125,-5.125 z m 45.21875,20.4375 0,11.90625 c 0,9.23076 -7.8259,17 -16.75,17 l -26.78125,0 c -7.33584,0 -13.40625,6.27849 -13.40625,13.625 l 0,25.53125 c 0,7.26634 6.31858,11.54032 13.40625,13.625 8.48733,2.49561 16.62623,2.94663 26.78125,0 6.75015,-1.95439 13.40625,-5.88761 13.40625,-13.625 l 0,-10.21875 -26.78125,0 0,-3.40625 26.78125,0 13.40625,0 c 7.79246,0 10.69626,-5.4354 13.40625,-13.59375 2.79933,-8.39888 2.68022,-16.47577 0,-27.25 -1.92578,-7.75744 -5.60388,-13.59375 -13.40625,-13.59375 l -10.0625,0 z m -15.0625,64.65625 c 2.77947,10e-6 5.03125,2.27742 5.03125,5.09375 -10e-6,2.82635 -2.25178,5.125 -5.03125,5.125 -2.76955,0 -5.03125,-2.29865 -5.03125,-5.125 0,-2.81633 2.26169,-5.09375 5.03125,-5.09375 z"
       id="path3169" />
  </g>
</svg>
